<?xml version="1.0" encoding="utf-8"?>
<!-- Generated by IcoMoon.io -->
<!DOCTYPE svg PUBLIC "-//W3C//DTD SVG 1.1//EN" "http://www.w3.org/Graphics/SVG/1.1/DTD/svg11.dtd">

<svg version="1.1" xmlns="http://www.w3.org/2000/svg" xmlns:xlink="http://www.w3.org/1999/xlink" viewBox="0 0 35 38" class="icon-custom">
<defs>
<g id="icon-vcr2">
	<path class="path1" d="M41.102 26.936v-26.936h-41.102v26.936h16.572v2.206h-3.716v2.858h15.389v-2.858h-3.716v-2.206h16.573zM3.542 23.394v-19.852h34.017v19.852h-34.017z" />
	<path class="path2" d="M30.133 4.957c-1.814 0-3.285 1.47-3.285 3.284 0 0.789 0.29 1.504 0.754 2.071l-3.565 5.585c-0.098-0.009-0.193-0.030-0.293-0.030-0.208 0-0.41 0.024-0.607 0.061l-2.677-4.065c0.337-0.515 0.536-1.129 0.536-1.791 0-1.814-1.47-3.284-3.284-3.284-1.814 0-3.284 1.47-3.284 3.284 0 0.369 0.075 0.717 0.186 1.048l-2.271 2.282c-0.383-0.156-0.801-0.246-1.239-0.246-1.814 0-3.284 1.47-3.284 3.284 0 1.814 1.47 3.284 3.284 3.284 1.814 0 3.285-1.47 3.285-3.284 0-0.444-0.091-0.866-0.251-1.253l2.156-2.166c0.431 0.208 0.908 0.334 1.419 0.334 0.225 0 0.445-0.023 0.658-0.066l2.65 4.025c-0.354 0.524-0.56 1.156-0.56 1.836 0 1.814 1.47 3.284 3.284 3.284 1.814 0 3.284-1.471 3.284-3.284 0-0.79-0.29-1.504-0.753-2.071l3.566-5.585c0.098 0.009 0.193 0.029 0.293 0.029 1.814 0 3.284-1.47 3.284-3.284 0-1.814-1.47-3.284-3.284-3.284zM11.102 18.132c-0.933 0-1.692-0.758-1.692-1.691 0-0.933 0.759-1.692 1.692-1.692s1.692 0.759 1.692 1.692c0 0.933-0.759 1.691-1.692 1.691zM17.711 11.749c-0.924 0-1.676-0.752-1.676-1.677s0.752-1.676 1.676-1.676c0.924 0 1.677 0.751 1.677 1.676 0 0.925-0.753 1.677-1.677 1.677zM23.743 20.842c-0.933 0-1.691-0.758-1.691-1.691s0.758-1.691 1.691-1.691c0.932 0 1.691 0.758 1.691 1.691 0 0.933-0.759 1.691-1.691 1.691zM30.133 9.895c-0.912 0-1.654-0.741-1.654-1.653s0.742-1.654 1.654-1.654 1.654 0.742 1.654 1.654c0 0.912-0.742 1.653-1.654 1.653z" />
</g>
<g id="icon-profile">
	<path class="path1" d="M0.225 30.451c0.638-0.741 1.754-1.634 3.693-2.407 6.404-2.543 9.051-1.637 9.361-8.716 0.013-0.3-0.077-0.563-0.271-0.792-0.343-0.404-0.866-1.087-0.944-1.605-0.114-0.787-0.231-1.31-0.377-1.833s-0.901-1.395-0.901-2.91c0-1.512 0.261-1.512 0.465-1.773 0.205-0.263 0.115-3.194 0.115-4.687 0-1.483 1.459-5.678 6.957-5.729h0.018c5.497 0.051 6.956 4.246 6.956 5.729 0 1.493-0.090 4.424 0.115 4.687 0.204 0.261 0.465 0.261 0.465 1.773 0 1.514-0.754 2.386-0.901 2.91s-0.263 1.047-0.38 1.833c-0.077 0.518-0.598 1.201-0.943 1.605-0.192 0.228-0.285 0.492-0.269 0.792 0.303 7.076 2.963 6.176 9.359 8.716 1.942 0.773 3.055 1.666 3.693 2.407 0.247 0.284 0.298 0.662 0.144 1.002-0.157 0.34-0.478 0.547-0.853 0.547h-34.79c-0.794 0-1.23-0.949-0.712-1.549z" />
</g>
<g id="icon-vcr">
	<path class="path1" d="M16 0c-8.836 0-16 7.163-16 16 0 8.836 7.163 16 16 16s16-7.163 16-16c0-8.837-7.163-16-16-16zM24.099 17.101l-11.553 6.474c-1.128 0.631-2.051 0.091-2.051-1.202v-12.649c0-1.293 0.927-1.842 2.061-1.221l11.532 6.319c1.134 0.621 1.139 1.647 0.011 2.279z" />
</g>
<g id="icon-settings">
	<path class="path1" d="M31.795 10.628l-0.517-1.329c-0.586-1.513-2.291-2.263-3.805-1.676l-2.329 0.905c-0.389-0.474-0.809-0.922-1.271-1.334l1.005-2.282c0.651-1.491-0.019-3.227-1.508-3.881l-1.306-0.573c-1.487-0.655-3.223 0.018-3.876 1.505l-1.005 2.281c-0.619-0.063-1.234-0.069-1.845-0.037l-0.905-2.326c-0.591-1.518-2.294-2.269-3.811-1.679l-1.328 0.515c-1.514 0.591-2.267 2.294-1.677 3.81l0.905 2.328c-0.474 0.387-0.923 0.807-1.338 1.273l-2.277-1.004c-1.489-0.656-3.226 0.017-3.883 1.505l-0.573 1.306c-0.656 1.485 0.022 3.222 1.509 3.878l2.282 1.005c-0.064 0.618-0.072 1.233-0.037 1.842l-2.329 0.905c-1.515 0.591-2.267 2.294-1.677 3.81l0.515 1.329c0.586 1.513 2.294 2.266 3.811 1.676l2.326-0.905c0.387 0.474 0.811 0.924 1.273 1.338l-1.007 2.284c-0.651 1.486 0.021 3.222 1.508 3.876l1.304 0.576c1.491 0.658 3.225-0.022 3.881-1.508l1.007-2.284c0.615 0.062 1.229 0.069 1.838 0.036l0.905 2.329c0.592 1.512 2.296 2.267 3.809 1.679l1.33-0.518c1.515-0.587 2.265-2.293 1.677-3.807l-0.903-2.33c0.475-0.388 0.921-0.809 1.334-1.271l2.281 1.004c1.489 0.656 3.227-0.017 3.881-1.507l0.573-1.305c0.658-1.487-0.018-3.221-1.508-3.877l-2.281-1.004c0.064-0.619 0.069-1.234 0.037-1.845l2.326-0.905c1.518-0.588 2.27-2.294 1.677-3.808zM22.98 19.075c-1.695 3.858-6.203 5.609-10.060 3.908-3.853-1.698-5.607-6.201-3.91-10.056 1.702-3.859 6.206-5.611 10.062-3.909 3.856 1.697 5.609 6.202 3.908 10.057z" />
	<path class="path2" d="M13.253 14.791c-0.67 1.517 0.020 3.286 1.534 3.952 1.518 0.67 3.289-0.016 3.956-1.534 0.67-1.518-0.022-3.289-1.536-3.957-1.518-0.666-3.291 0.021-3.954 1.539z" />
</g>
<g id="icon-spend">
	<path class="path1" d="M18.286 10.476c1.778 0 2.667 1.54 2.667 2.476h2.667c0-1.897-1.586-3.698-3.81-4.193v-1.902h-3.048v1.856c-3.501 0.578-3.81 3.141-3.81 3.995 0 1.514 0.637 3.397 4.901 4.626 1.921 0.554 3.099 0.979 3.099 2.222 0 0.936-0.888 1.969-2.667 1.969-2.287 0-2.667-1.541-2.667-2.476h-2.667c0 0.855 0.309 3.661 3.81 4.239v1.856h3.048v-1.856c3.502-0.578 3.81-3.14 3.81-3.995 0-2.404-1.923-3.768-4.901-4.626-1.652-0.477-3.099-1.066-3.099-2.222 0-0.936 0.888-1.969 2.667-1.969z" />
	<path class="path2" d="M9.143 11.429h-3.166c1.858-5.002 6.661-8.571 12.309-8.571s10.451 3.57 12.309 8.571h3.019c-1.969-6.607-8.082-11.429-15.329-11.429s-13.36 4.821-15.329 11.429h-2.957l4.571 6.095 4.571-6.095z" />
	<path class="path3" d="M32 14.476l-4.571 6.088 3.166 0.008c-1.858 5.001-6.661 8.571-12.309 8.571s-10.451-3.57-12.309-8.571h-3.019c1.969 6.607 8.082 11.429 15.329 11.429s13.36-4.821 15.329-11.429h2.957l-4.571-6.095z" />
</g>
<g id="icon-cpm">
	<path class="path1" d="M8.437 11.052l-2.679 3.099 10.94 9.461 14.937-20.428-3.306-2.418-12.314 16.839z" />
	<path class="path2" d="M31.409 11.678l-2.959 0.828c0.317 1.131 0.477 2.307 0.477 3.494 0 7.128-5.799 12.927-12.927 12.927s-12.928-5.799-12.928-12.927c0-7.128 5.8-12.927 12.928-12.927 1.747 0 3.44 0.341 5.031 1.015l1.197-2.831c-1.973-0.834-4.068-1.258-6.228-1.258-8.823 0-16 7.178-16 16 0 8.823 7.177 16 16 16s16-7.177 16-16c0-1.467-0.199-2.922-0.591-4.322z" />
</g>
<g id="icon-weekly">
	<path class="path1" d="M0 12.803h9.678v13.522h-9.678v-13.522z" />
	<path class="path2" d="M12.433 0h9.679v26.326h-9.679v-26.326z" />
	<path class="path3" d="M25.007 5.89h9.676v20.436h-9.676v-20.436z" />
	<path class="path4" d="M0 28.534h34.516v3.466h-34.516v-3.466z" />
</g>
</defs>

<g fill="{{color}}">
	<use xlink:href="{{ icon_name }}" transform="translate(0 5)" ></use>
</g>

</svg>
